<svg width="162" height="138" viewBox="0 0 162 138" fill="none" xmlns="http://www.w3.org/2000/svg">
<path d="M80.9589 129.135V137.349L-0.000488281 90.1776V81.9633L80.9589 129.135Z" fill="#DFE6FD"/>
<path d="M80.9589 129.135V137.349L161.999 90.1776V81.9633L80.9589 129.135Z" fill="#C2CAE3"/>
<path d="M80.9589 129.135L161.878 81.9632L80.8372 35.1169L-0.000488281 81.9632L80.9589 129.135Z" fill="white"/>
<path d="M66.6264 17.1615L73.3262 15.2293C72.2803 15.5241 71.2999 16.048 70.4175 16.7685L63.7177 18.7008C64.6001 17.9803 65.5805 17.4563 66.6264 17.1615Z" fill="#E8A200"/>
<path d="M66.6264 17.1615L73.3262 15.2293C72.2803 15.5241 71.2999 16.048 70.4175 16.7685L63.7177 18.7008C64.6001 17.9803 65.5805 17.4563 66.6264 17.1615Z" fill="#E8A200"/>
<path d="M61.4301 3.24297L68.1299 1.31076C69.5025 0.917765 71.0059 0.754017 72.5419 0.819516L65.8421 2.75173C64.3061 2.65348 62.8354 2.81723 61.4301 3.24297Z" fill="#E8A200"/>
<path d="M61.4301 3.24297L68.1299 1.31076C69.5025 0.917765 71.0059 0.754017 72.5419 0.819516L65.8421 2.75173C64.3061 2.65348 62.8354 2.81723 61.4301 3.24297Z" fill="#E8A200"/>
<path d="M49.7625 15.1637L56.4623 13.2315C56.5603 13.1987 56.691 13.1987 56.8218 13.1987L50.122 15.131C50.0239 15.131 49.8932 15.131 49.7625 15.1637Z" fill="#2687D5"/>
<path d="M49.7625 15.1637L56.4623 13.2315C56.5603 13.1987 56.691 13.1987 56.8218 13.1987L50.122 15.131C50.0239 15.131 49.8932 15.131 49.7625 15.1637Z" fill="#2687D5"/>
<path d="M50.1219 15.131L56.8218 13.1987C57.7042 13.2315 58.7827 14.2467 59.567 15.8514L52.8672 17.7837C52.1155 16.179 51.0044 15.1637 50.1219 15.131Z" fill="#2687D5"/>
<path d="M50.1219 15.1309L56.8218 13.1987C57.2466 13.2315 57.7369 13.4935 58.2271 13.952L51.5273 15.8842C51.0697 15.4257 50.5795 15.1637 50.1219 15.1309Z" fill="#2687D5"/>
<path d="M51.5273 15.8514L58.2272 13.9192C58.7174 14.3777 59.1749 15.0327 59.5671 15.8514L52.8673 17.7836C52.4751 16.9977 52.0176 16.3427 51.5273 15.8514Z" fill="#2687D5"/>
<path d="M52.8673 17.7837L59.5671 15.8514L63.489 24.1699L56.7891 26.1021L52.8673 17.7837Z" fill="#2687D5"/>
<path d="M91.334 73.8511L84.6342 75.7833C83.7191 76.0453 82.7387 76.1435 81.7255 76.1108C79.4378 75.9798 76.8886 75.0628 74.2087 73.2288C63.8812 66.2204 55.5146 48.5356 55.4492 33.5691L62.149 31.6368C62.2144 46.5707 70.581 64.2554 80.9085 71.2966C83.5884 73.1306 86.1376 74.0476 88.4253 74.1786C89.4385 74.2113 90.4189 74.1131 91.334 73.8511Z" fill="#2687D5"/>
<path d="M55.4492 33.5691L62.149 31.6368C62.1817 39.0383 64.2407 47.0947 67.5742 54.2013L60.8744 56.1336C57.5409 49.0269 55.4819 40.9705 55.4492 33.5691Z" fill="#2687D5"/>
<path d="M60.8745 56.1336L67.5743 54.2014C70.1889 59.7688 73.5878 64.7795 77.3789 68.382L70.6791 70.3142C66.8553 66.7117 63.4891 61.7338 60.8745 56.1336Z" fill="#2687D5"/>
<path d="M70.6462 70.3468L77.346 68.4146C78.4899 69.4953 79.6665 70.4778 80.8757 71.2965C83.5556 73.1305 86.1048 74.0475 88.3926 74.1785C89.4384 74.244 90.3862 74.113 91.3013 73.851L84.6014 75.7832C83.6864 76.0452 82.7059 76.1434 81.6927 76.1107C79.405 75.9797 76.8558 75.0627 74.1759 73.2287C72.9993 72.41 71.7901 71.4275 70.6462 70.3468Z" fill="#2687D5"/>
<path d="M56.7892 26.1021L63.489 24.1699L67.6396 32.914L60.9398 34.8462L56.7892 26.1021Z" fill="#2687D5"/>
<path d="M67.9336 35.2393L61.2338 37.1715C61.6914 37.0405 61.5933 36.189 60.9397 34.8463L67.6395 32.9141C68.2931 34.224 68.3912 35.1083 67.9336 35.2393Z" fill="#2687D5"/>
<path d="M60.9397 34.8463L67.6395 32.9141C67.6722 33.0123 67.7376 33.1105 67.7702 33.2088L61.0704 35.141C61.0377 35.0428 60.9724 34.9445 60.9397 34.8463Z" fill="#2687D5"/>
<path d="M61.0704 35.1412L67.7702 33.2089C68.3258 34.3879 68.3585 35.1411 67.9337 35.2394L61.2338 37.1716C61.6587 37.0406 61.626 36.2874 61.0704 35.1412Z" fill="#2687D5"/>
<path d="M87.3794 74.375L94.0792 72.4428L100.321 85.6409L93.6216 87.5731L87.3794 74.375Z" fill="#2687D5"/>
<path d="M96.1709 87.8026L89.4711 89.7349C90.9744 89.3091 92.3471 88.5886 93.6217 87.6061L100.321 85.6739C99.0469 86.6236 97.6742 87.3441 96.1709 87.8026Z" fill="#2687D5"/>
<path d="M93.6217 87.5731L100.321 85.6409C99.0469 86.6234 97.6416 87.3438 96.1709 87.7696L89.4711 89.7018C90.9744 89.2761 92.3471 88.5556 93.6217 87.5731Z" fill="#2687D5"/>
<path d="M50.122 15.131C51.0044 15.1638 52.0829 16.179 52.8673 17.7838L56.7891 26.1021L60.9397 34.8463C61.6914 36.32 61.7241 37.2043 61.0705 37.1715C60.8417 37.1715 60.5476 37.0405 60.1227 36.7458L55.4165 33.5363C55.4819 48.4701 63.8484 66.1549 74.1759 73.1961C76.8559 75.0301 79.4051 75.9471 81.6928 76.0781C83.8498 76.1763 85.778 75.5868 87.3468 74.3751L93.589 87.6059C91.1706 89.4727 88.3272 90.3896 85.1571 90.1931C81.8235 90.0294 78.1305 88.6539 74.2086 86.0012C59.1749 75.7833 46.7884 49.5836 46.6577 27.6741L42.0496 24.5302C40.6442 23.5804 40.3501 22.2049 41.3306 21.5827L45.2197 18.275L49.305 15.393C49.5664 15.1965 49.8279 15.0983 50.122 15.131Z" fill="#54AFFF"/>
<path d="M89.8632 55.7077L96.563 53.7755C96.5956 53.7755 96.661 53.7427 96.7264 53.7755C96.9225 53.7755 97.2166 53.9065 97.5761 54.1357L90.8763 56.0679C90.5168 55.8387 90.2553 55.7077 90.0266 55.7077C89.9612 55.7077 89.9285 55.7077 89.8632 55.7077Z" fill="#E8A200"/>
<path d="M89.8632 55.7077L96.563 53.7755C96.5956 53.7755 96.661 53.7427 96.7264 53.7755C96.9225 53.7755 97.2166 53.9065 97.5761 54.1357L90.8763 56.0679C90.5168 55.8387 90.2553 55.7077 90.0266 55.7077C89.9612 55.7077 89.9285 55.7077 89.8632 55.7077Z" fill="#E8A200"/>
<path d="M90.8765 56.0681L97.5436 54.1359L102.381 57.4108L95.6807 59.343L90.8765 56.0681Z" fill="#E8A200"/>
<path d="M108.034 75.9143L101.335 77.8465C101.465 77.8137 101.596 77.7482 101.727 77.65L108.427 75.7178C108.329 75.816 108.198 75.8815 108.034 75.9143Z" fill="#E8A200"/>
<path d="M101.76 77.65L108.46 75.7178C108.329 75.8161 108.198 75.8816 108.067 75.9143L101.368 77.8465C101.498 77.8138 101.629 77.7483 101.76 77.65Z" fill="#E8A200"/>
<path d="M105.747 74.5715L112.414 72.6393L108.459 75.7177L101.76 77.6499L105.747 74.5715Z" fill="#E8A200"/>
<path d="M109.701 71.4931L116.401 69.5609L112.414 72.6393L105.747 74.5715L109.701 71.4931Z" fill="#E8A200"/>
<path d="M104.407 65.2706L111.074 63.3384L115.682 66.4496L108.982 68.3818L104.407 65.2706Z" fill="#E8A200"/>
<path d="M108.982 68.3818L115.682 66.4496C117.087 67.3993 117.382 68.7748 116.401 69.528L109.701 71.4602C110.714 70.707 110.388 69.3315 108.982 68.3818Z" fill="#E8A200"/>
<path d="M108.982 68.3818L115.682 66.4496C115.878 66.5806 116.042 66.7116 116.205 66.8753L109.505 68.8076C109.374 68.6438 109.178 68.5128 108.982 68.3818Z" fill="#E8A200"/>
<path d="M109.505 68.8075L116.205 66.8753C116.467 67.1373 116.695 67.3993 116.826 67.694L110.126 69.6263C109.995 69.3315 109.799 69.0695 109.505 68.8075Z" fill="#E8A200"/>
<path d="M110.126 69.6264L116.826 67.6942C117.153 68.3819 117.022 69.0696 116.401 69.5609L109.701 71.4931C110.322 71.0019 110.453 70.3141 110.126 69.6264Z" fill="#E8A200"/>
<path d="M65.842 2.75167L72.5418 0.819458C75.9081 0.983206 79.6338 2.32594 83.5557 5.0114C98.5894 15.2293 110.976 41.4289 111.107 63.3384L104.407 65.2707C104.309 43.3612 91.8896 17.1287 76.8559 6.94362C72.934 4.25815 69.2083 2.91542 65.842 2.75167Z" fill="#E8A200"/>
<path d="M65.842 2.75167L72.5418 0.819458C75.9081 0.983206 79.6338 2.32593 83.5557 5.0114C85.2878 6.19038 86.9873 7.59862 88.6541 9.1706L81.9543 11.1028C80.2875 9.53083 78.588 8.1226 76.8559 6.94361C72.934 4.25815 69.2083 2.91542 65.842 2.75167Z" fill="#E8A200"/>
<path d="M81.9542 11.0699L88.654 9.13763C94.21 14.4431 99.2103 21.8117 103.067 30.0646L96.367 31.9969C92.5105 23.744 87.5102 16.3753 81.9542 11.0699Z" fill="#E8A200"/>
<path d="M96.3668 31.9969L103.067 30.0647C107.969 40.5773 111.041 52.4654 111.106 63.3383L104.407 65.2705C104.341 54.3977 101.269 42.4768 96.3668 31.9969Z" fill="#E8A200"/>
<path d="M65.842 2.75168C69.2082 2.91543 72.934 4.25816 76.8558 6.94363C91.8895 17.1615 104.276 43.3612 104.407 65.2707L109.015 68.4146C110.42 69.3644 110.714 70.7399 109.734 71.4931L105.747 74.5716L101.759 77.65C101.531 77.8465 101.237 77.912 100.975 77.912C100.06 77.8793 98.9488 76.864 98.2625 75.2921L94.2426 66.7772L90.2227 58.2623C89.4711 56.6575 89.4384 55.7406 90.0593 55.7733C90.2554 55.7733 90.5496 55.9043 90.9091 56.1335L95.7133 59.4085C95.6479 44.4747 87.1833 26.6916 76.8558 19.6832C74.2739 17.9148 71.7901 17.0305 69.535 16.8995C67.3454 16.7685 65.3844 17.4235 63.7503 18.7335L57.41 5.30615C59.7958 3.43942 62.6718 2.58793 65.842 2.75168Z" fill="#FDD762"/>
</svg>
