<svg width="162" height="152" viewBox="0 0 162 152" fill="none" xmlns="http://www.w3.org/2000/svg">
<path d="M80.9978 143.231V151.439L0.0947266 104.26V96.0514L80.9978 143.231Z" fill="#DFE6FD"/>
<path d="M80.9978 143.231V151.439L161.982 104.26V96.0514L80.9978 143.231Z" fill="#C2CAE3"/>
<path d="M80.9978 143.231L161.86 96.0514L80.8761 49.2378L0.0947266 96.0514L80.9978 143.231Z" fill="white"/>
<path d="M54.6282 84.8537L63.1701 89.6917L69.7622 93.5063L100.061 111.029L108.448 106.191L107.984 76.5732L96.7187 56.2287C95.883 55.9186 94.7689 55.0192 93.9333 54.7401C92.8191 54.368 91.7359 54.0268 90.6217 53.7167C91.7049 54.9572 91.9216 56.849 90.9003 58.3066L82.2346 63.92C79.8825 67.4244 75.921 80.946 75.921 80.946C75.921 80.946 68.3695 57.7794 68.679 52.3831L69.9169 50.9255C68.8028 50.9255 67.7815 50.9566 66.6673 51.0496C64.7175 51.1736 62.8296 51.7009 61.1274 52.6312C60.6013 52.9104 60.1061 53.2205 59.6419 53.5616C59.549 53.6547 59.4562 53.7167 59.3634 53.7477C58.9301 54.1199 58.5277 54.461 58.1563 54.8022C57.6302 55.2673 57.5064 55.5775 57.1041 56.1357C56.1756 57.3452 55.7733 58.7408 55.34 60.1984C55.3091 60.2294 55.3091 60.2294 55.3091 60.2914C54.8758 61.656 54.6901 63.0826 54.6901 64.4782L54.6282 84.8537Z" fill="#54AFFF"/>
<path d="M58.1562 54.8952C58.4967 54.585 58.8062 54.368 59.2395 54.1509C62.1487 52.5692 64.377 52.2281 66.0173 52.3521C67.0695 52.3831 68.1218 52.5072 69.205 52.6312C71 52.7863 70.5977 55.6395 72.3618 55.9496C72.9189 56.0737 73.476 56.1977 74.0021 56.2908C74.3116 56.3218 74.5901 56.4148 74.8687 56.4458C77.4684 57.0351 79.9752 57.7174 82.4511 58.5547C82.4821 58.5547 82.544 58.5547 82.6059 58.5857C82.6987 58.5857 82.7297 58.5857 82.7606 58.6167C82.7606 58.6167 82.7606 58.6167 82.7916 58.6167C82.7916 58.6167 82.7916 58.6167 82.8225 58.6167C83.6581 58.9269 84.4628 59.206 85.2984 59.5161C85.2984 59.5161 88.6409 60.1053 89.7551 60.9117C90.405 61.3769 91.6429 62.4003 92.2 62.8655C96.9043 67.0212 99.2873 77.8447 99.4111 84.1094L100.03 110.967L108.417 106.129L107.953 76.5112C107.953 76.5112 106.591 62.1522 96.6876 56.1667C95.9448 55.7015 94.7378 54.9572 93.9022 54.6781C92.4167 54.1819 90.9311 53.7477 89.3837 53.3445C89.1051 53.2205 88.8266 53.1584 88.5481 53.0964C87.1863 52.7553 85.7936 52.4141 84.4009 52.166C83.6581 52.011 82.9154 51.8869 82.1726 51.7629C82.0797 51.7629 82.0488 51.7319 81.9869 51.7319C81.9869 51.7319 81.9869 51.7319 81.9559 51.7319H81.8012C79.9443 51.4217 78.0873 51.2356 76.1994 51.1116C75.7352 51.0186 75.271 51.0186 74.8377 51.0186C74.7139 50.9875 74.5901 50.9875 74.5282 50.9875H74.3735C73.9092 50.9565 73.476 50.9565 73.0117 50.9565C72.9808 50.9565 72.9808 50.9565 72.9808 50.9565C72.826 50.9255 72.7022 50.9255 72.5475 50.9255H72.3618C72.2689 50.9255 72.207 50.9255 72.0833 50.9565C71.9904 50.9255 71.8976 50.9255 71.8047 50.9255L72.238 48.3204C71.0929 48.3204 70.0097 48.3514 68.8646 48.4445C66.9148 48.5685 62.8605 50.9565 61.1583 52.1971C60.725 52.6002 58.5586 54.554 58.1562 54.8952Z" fill="#2687D5"/>
<path d="M75.9212 81.0082C75.9212 81.0082 83.5965 66.153 85.9487 62.6485L90.8695 58.3687C91.8599 56.9111 91.6742 55.0193 90.591 53.7788C90.1887 53.6548 89.7863 53.5617 89.384 53.4377C89.384 53.4067 89.384 53.4067 89.384 53.4067C89.1054 53.3446 88.8269 53.2516 88.5484 53.2206C87.1866 52.8484 85.7939 52.5383 84.4012 52.2902C83.6584 52.1351 82.9157 52.0111 82.1729 51.887C82.08 51.887 82.0491 51.856 81.9872 51.856C81.9872 51.856 81.9872 51.856 81.9563 51.856H81.8015C79.9446 51.5459 78.0876 51.3598 76.1998 51.2358C75.7355 51.1427 75.2713 51.1427 74.8071 51.1427C74.6833 51.1117 74.5595 51.1117 74.4976 51.1117H74.3428C73.8786 51.0807 73.4453 51.0807 72.9501 51.0807C72.9192 51.0807 72.9192 51.0807 72.9192 51.0807C72.7644 51.0497 72.6406 51.0497 72.4859 51.0497H69.9171L68.6792 52.5073C68.3697 57.8725 75.9212 81.0082 75.9212 81.0082Z" fill="#FDD762"/>
<path d="M89.6312 60.2294L91.0239 58.1515C92.2928 56.2908 91.519 53.6857 89.4455 52.8483C83.9056 50.6154 78.0872 49.0958 72.176 48.3514L68.7097 52.4451C71.8665 53.3135 83.9366 57.5933 89.6312 60.2294Z" fill="#7FA9DB"/>
<path d="M74.033 56.9733L72.4546 52.4144L73.414 50.6156L74.5591 51.7631C74.5591 51.7631 75.9518 56.6011 74.033 56.9733Z" fill="#FFC2B0"/>
<path d="M88.7341 42.8932L88.8888 53.2205C88.8888 53.2205 87.7128 57.4072 83.9989 58.2136C80.285 59.0199 77.1592 58.5857 75.7046 57.7794C74.4357 57.0661 74.4047 56.787 74.4047 56.787L74.25 46.5837L88.7341 42.8932Z" fill="#FFC2B0"/>
<path d="M73.4452 51.2977C72.4239 53.9648 74.807 56.818 74.807 56.818L72.362 60.7256C72.362 60.7256 69.4528 58.5547 68.6791 56.1978C67.9054 53.8408 68.6791 52.4452 68.6791 52.4452L70.9693 49.7471L73.4452 51.2977Z" fill="#E8A200"/>
<path d="M74.25 46.5837L74.2809 48.9407L83.8132 46.5217L83.9679 56.849C83.9679 56.849 83.7823 57.5003 83.318 58.3376C83.5347 58.3066 83.7513 58.2756 83.9679 58.2136C87.6818 57.4072 88.8579 53.2205 88.8579 53.2205L88.7031 42.8932L74.25 46.5837Z" fill="#EA9C92"/>
<path d="M90.4361 45.3433C88.703 47.2351 86.7532 48.9098 84.6177 50.1813C73.2904 56.8801 67.0388 47.1731 65.708 39.0167C64.8414 33.8375 63.4487 25.7432 64.4081 18.9823C65.7699 18.0519 67.8434 17.5868 70.9383 18.3C80.4706 20.471 85.2367 21.3083 85.2058 27.2008C85.1748 33.0622 85.3605 37.0319 85.3605 37.0319L87.8055 37.0008C87.8055 37.0008 90.7766 26.0533 93.6857 28.7514C100.092 34.7369 90.1885 36.0084 90.4361 45.3433Z" fill="#FFC2B0"/>
<path d="M71.3715 14.4234C70.1645 14.3304 68.9574 14.4544 67.8742 14.9817C67.0696 15.3538 66.3887 15.9741 65.8007 16.5943C65.3364 17.0905 64.9031 17.6488 64.6556 18.3C64.5627 18.5481 64.5318 18.8273 64.6246 19.0444C63.6652 21.1222 68.4004 21.7735 69.1122 21.8975C74.095 22.7349 75.9828 21.2773 79.6039 20.9672C83.5034 20.657 83.782 29.8989 84.0605 33.8375C84.4628 39.6679 84.0605 45.8085 82.9463 51.0807C83.5034 50.8326 84.0605 50.5225 84.6176 50.1813C86.753 48.9098 88.7028 47.2351 90.436 45.3433C91.8287 37.1249 101.082 33.4344 93.6237 28.7514C88.8885 25.7742 87.7434 37.0008 87.7434 37.0008L85.2985 37.0319C85.2985 37.0319 86.753 33.0312 86.784 27.1697C86.784 26.3014 85.2675 25.6191 85.4841 24.7817C85.7936 23.4792 85.1128 22.8589 84.8342 21.7425C84.4628 20.3469 84.1843 18.9513 83.8439 17.5557C83.782 17.3386 83.751 17.1526 83.6272 16.9665C83.5344 16.8424 83.4106 16.7804 83.2868 16.6874C82.4512 16.1602 81.4917 15.819 80.5014 15.6639C79.3253 15.4779 78.1493 15.85 76.9732 15.5709C76.7256 15.5089 76.478 15.3848 76.1995 15.3228C75.9209 15.2608 75.6424 15.2298 75.3639 15.1988C74.0021 15.0127 72.7642 14.5165 71.3715 14.4234Z" fill="#EA9C92"/>
<path d="M100.123 26.6424C100.123 26.6424 100.185 39.0476 90.436 45.3432C90.3741 42.8932 91.086 40.5982 92.3858 38.5204C92.9119 37.683 93.5 36.9077 94.088 36.1324C94.8308 35.14 95.1403 34.3026 95.3569 33.0621C95.5735 31.7285 95.0165 29.9918 93.9332 29.1235C92.9738 28.3481 91.674 28.5342 90.9312 29.4956C89.6004 31.2323 88.8576 33.4653 88.1768 35.5431C88.022 36.0083 87.8673 36.5045 87.7435 37.0007L85.2985 37.0318C85.2985 37.0318 85.5771 36.0393 85.639 30.1779C85.639 28.5962 84.8652 23.9133 84.3082 22.4247C82.7607 18.2689 79.6658 18.8272 79.0778 19.0443C76.8804 19.8816 73.5689 20.905 70.8763 20.874C66.9458 20.843 64.8104 19.3544 64.5318 18.7651C64.3152 18.2689 64.6556 17.4316 64.7485 16.9354C64.9032 16.1911 65.1198 15.4468 65.3674 14.7335C66.0483 12.7486 67.1315 10.8879 68.7409 9.52329C75.7972 3.50679 82.1727 1.45993 91.8287 6.422C101.485 11.4151 100.123 26.6424 100.123 26.6424Z" fill="#49484D"/>
<path d="M88.8579 51.2977C88.8579 51.2977 90.5291 52.1661 91.6433 52.8174C92.7574 53.4686 91.9218 58.8959 88.5793 61.1598C84.8035 63.7029 80.5326 64.4472 80.5326 64.4472L79.5422 58.3377C79.5422 58.3377 82.4514 58.4617 85.6392 56.849C88.8269 55.2364 88.8579 51.2977 88.8579 51.2977Z" fill="#E8A200"/>
</svg>
