<svg width="162" height="139" viewBox="0 0 162 139" fill="none" xmlns="http://www.w3.org/2000/svg">
<path d="M80.9589 130.451L80.9183 138.666L-0.000488281 91.4943V83.2799L80.9589 130.451Z" fill="#DFE6FD"/>
<path d="M80.9591 130.451L80.9185 138.666L162 91.4943L161.959 83.2799L80.9591 130.451Z" fill="#C2CAE3"/>
<path d="M80.9589 130.452L161.878 83.28L80.8372 36.4337L-0.000488281 83.28L80.9589 130.452Z" fill="white"/>
<path d="M59.1359 19.6842V36.2111H59.1694C59.1694 36.3119 59.1694 36.3791 59.1694 36.4799C59.2364 37.0509 59.337 37.5884 59.5046 38.1258C59.8063 39.0328 60.2421 39.9398 60.8455 40.8131C61.0466 41.1155 61.2813 41.4178 61.5494 41.7201C62.6557 43.0302 76.6343 54.1153 82.6012 54.1153C88.6016 54.1153 102.48 43.0302 103.586 41.7201C104.457 40.7124 105.061 39.6375 105.463 38.5289C105.731 37.7563 105.899 36.9837 105.966 36.1776V28.8882C105.966 28.8546 105.966 19.6842 105.966 19.6506H59.1359V19.6842Z" fill="#EBEFFD"/>
<path d="M100.1 29.2577V23.7823C100.1 23.5808 100.1 23.4128 100.066 23.2113C100.033 22.8082 99.9322 22.3715 99.7981 21.9684C99.5969 21.2966 99.2282 20.5912 98.7924 19.9529C98.6248 19.7178 98.4572 19.5162 98.2561 19.2811C97.418 18.3069 96.3118 17.4 94.9039 16.5938C88.0319 12.63 76.9361 12.63 70.0977 16.5938C68.7233 17.4 67.617 18.3069 66.779 19.2811C66.1421 20.0537 65.6727 20.8263 65.3711 21.6661C65.1699 22.2371 65.0358 22.8418 65.0023 23.4128V29.2577H100.1Z" fill="#FFA300"/>
<path d="M98.3234 33.3894C98.9603 32.6168 99.4296 31.8442 99.7313 31.0044C99.9324 30.4334 100.066 29.8287 100.1 29.2577C100.1 29.1233 100.1 29.0225 100.1 28.8882C100.1 28.6866 100.1 28.5187 100.066 28.3171C100.033 27.914 99.9324 27.4773 99.7983 27.0742C99.5972 26.4024 99.2284 25.697 98.7926 25.0588C98.625 24.8236 98.4574 24.6221 98.2563 24.3869C98.1557 24.2862 98.0552 24.1518 97.9546 24.051L82.434 44.4409C86.7918 42.795 97.4853 34.3635 98.3234 33.3894Z" fill="#FDD762"/>
<path d="M66.8126 24.3872C66.1757 25.1598 65.7063 25.9324 65.4046 26.7722C65.2035 27.3433 65.0694 27.9479 65.0359 28.5189C65.0359 28.6533 65.0359 28.7541 65.0359 28.8884C65.0359 29.09 65.0359 29.258 65.0694 29.4595C65.1029 29.8626 65.2035 30.2993 65.3376 30.7024C65.5387 31.3742 65.9075 32.0796 66.3433 32.7178C66.5109 32.953 66.6785 33.1545 66.8796 33.3897C67.7176 34.3638 78.981 43.635 82.4003 44.4412H82.4338L67.0137 24.1857C66.9466 24.2529 66.8796 24.32 66.8126 24.3872Z" fill="#E8A200"/>
<path d="M94.904 21.6998C88.032 17.736 76.9362 17.736 70.0978 21.6998C68.8239 22.4388 67.7848 23.2786 66.9802 24.1855C66.9802 24.1855 80.7242 44.4411 82.4003 44.4411C84.5122 44.4411 97.9209 24.0512 97.9209 24.0512C97.1499 23.2114 96.1443 22.4052 94.904 21.6998Z" fill="#F9BF30"/>
<path d="M105.966 67.4846C105.966 67.3838 105.966 67.3166 105.966 67.2159C105.899 66.6448 105.798 66.1074 105.631 65.5699C105.329 64.6629 104.893 63.756 104.29 62.8826C104.089 62.5803 103.854 62.278 103.586 61.9756C102.48 60.6656 88.5346 49.5804 82.5342 49.5804C76.5338 49.5804 62.6557 60.6656 61.5495 61.9756C60.6779 62.9834 60.0745 64.0583 59.6723 65.1668C59.4041 65.9394 59.2365 66.712 59.1694 67.5182V74.8075C59.1694 75.0762 59.1694 75.3114 59.203 75.5801C59.27 76.1512 59.3706 76.6886 59.5382 77.2261C59.8399 78.133 60.2757 79.04 60.8791 79.9134C61.0802 80.2157 61.3148 80.518 61.583 80.8203C62.6892 82.1304 64.1977 83.3397 66.0414 84.4146C75.2264 89.722 90.0766 89.722 99.1946 84.4146C101.038 83.3397 102.513 82.1304 103.619 80.8203C104.491 79.8126 105.094 78.7377 105.497 77.6292C105.765 76.8566 105.932 76.084 106 75.2778L105.966 67.4846Z" fill="#EBEFFD"/>
<path d="M105.933 72.8256L100.368 72.8592C99.9656 72.5905 99.5299 72.3218 99.0941 72.053C90.0096 66.7792 75.26 66.7792 66.1421 72.053C65.5722 72.3889 65.0358 72.7248 64.533 73.0944L59.3036 73.128V81.5929C59.3036 85.0529 61.5831 88.4792 66.1421 91.1329C75.2265 96.4067 89.9761 96.4067 99.0941 91.1329C103.653 88.5128 105.933 85.0529 105.933 81.5929V72.8256Z" fill="#2687D5"/>
<path d="M81.8636 68.123C76.1649 68.2238 70.5332 69.5339 66.1754 72.0532C65.6055 72.3891 65.0692 72.725 64.5663 73.0946L59.3369 73.1282V81.5931C59.3369 85.053 61.6164 88.4794 66.1754 91.1331C70.5332 93.6524 76.1649 94.9625 81.8636 95.0632V68.123Z" fill="#54AFFF"/>
<path d="M62.555 73.0945L59.3369 73.1281V81.5931C59.3369 83.9445 60.4096 86.3295 62.555 88.4121V73.0945Z" fill="#7AC4FF"/>
<path d="M82.6361 86.2959C95.5031 86.2959 105.934 80.2651 105.934 72.8258C105.934 65.3865 95.5031 59.3557 82.6361 59.3557C69.7691 59.3557 59.3384 65.3865 59.3384 72.8258C59.3384 80.2651 69.7691 86.2959 82.6361 86.2959Z" fill="#54AFFF"/>
<path d="M99.1277 82.3658C90.0433 87.6396 75.2937 87.6396 66.1757 82.3658C61.8514 79.88 59.6054 76.6216 59.3708 73.3633C59.1361 76.9911 61.3821 80.6526 66.1757 83.4071C75.2601 88.6809 90.0098 88.6809 99.1277 83.4071C103.921 80.6526 106.167 76.9911 105.933 73.3633C105.698 76.6216 103.452 79.88 99.1277 82.3658Z" fill="#7AC4FF"/>
<path d="M95.5074 69.1642C95.2057 68.9626 94.904 68.7611 94.5688 68.5931C87.9649 64.7637 77.2715 64.7637 70.6676 68.5931C70.2654 68.8283 69.8631 69.097 69.4944 69.3321H68.0194V77.2261C68.7234 77.9315 69.5949 78.6034 70.6341 79.1744C77.2379 83.0038 87.9314 83.0038 94.5352 79.1744C97.8204 77.2597 99.4965 74.7739 99.4965 72.2546V69.1306L95.5074 69.1642Z" fill="#E8A200"/>
<path d="M70.7015 68.5597C70.2992 68.7949 69.8969 69.0636 69.5282 69.2987H68.0532V77.1927C68.7572 77.8981 69.6288 78.5699 70.6679 79.141C73.819 80.9549 77.9087 81.9291 82.0654 81.9962V65.6709C77.9422 65.8053 73.8525 66.7458 70.7015 68.5597Z" fill="#F9BF30"/>
<path d="M68.053 69.3323H65.74V72.2547C65.74 73.9679 66.511 75.681 68.053 77.1926V69.3323Z" fill="#FDD762"/>
<path d="M82.6349 78.9058C91.9658 78.9058 99.5299 74.5294 99.5299 69.1308C99.5299 63.7321 91.9658 59.3557 82.6349 59.3557C73.304 59.3557 65.7399 63.7321 65.7399 69.1308C65.7399 74.5294 73.304 78.9058 82.6349 78.9058Z" fill="#5793CE"/>
<path d="M105.932 13.4698L100.368 13.5034C99.9655 13.2347 99.5297 12.9659 99.094 12.6972C90.0095 7.42336 75.2599 7.42336 66.1419 12.6972C65.5721 13.0331 65.0357 13.369 64.5329 13.7385L59.3035 13.7721V22.2371C59.3035 25.697 61.583 29.1233 66.1419 31.777C75.2264 37.0509 89.976 37.0509 99.094 31.777C103.653 29.1569 105.932 25.697 105.932 22.2371V13.4698Z" fill="#2687D5"/>
<path d="M81.8635 8.76697C76.1648 8.86774 70.5331 10.1778 66.1753 12.6971C65.6054 13.0331 65.0691 13.369 64.5662 13.7385L59.3368 13.7721V22.2371C59.3368 25.697 61.6163 29.1233 66.1753 31.777C70.5331 34.2963 76.1648 35.6064 81.8635 35.7072V8.76697Z" fill="#54AFFF"/>
<path d="M62.5549 13.7385L59.3368 13.7721V22.2371C59.3368 24.5885 60.4095 26.9735 62.5549 29.0562V13.7385Z" fill="#7AC4FF"/>
<path d="M82.6356 26.94C95.5026 26.94 105.933 20.9092 105.933 13.4698C105.933 6.03052 95.5026 -0.000244141 82.6356 -0.000244141C69.7686 -0.000244141 59.3379 6.03052 59.3379 13.4698C59.3379 20.9092 69.7686 26.94 82.6356 26.94Z" fill="#54AFFF"/>
<path d="M99.1275 23.0098C90.0431 28.2836 75.2934 28.2836 66.1755 23.0098C61.8511 20.524 59.6052 17.2657 59.3705 14.0073C59.1359 17.6352 61.3818 21.2966 66.1755 24.0511C75.2599 29.3249 90.0095 29.3249 99.1275 24.0511C103.921 21.2966 106.167 17.6352 105.932 14.0073C105.698 17.2657 103.452 20.4904 99.1275 23.0098Z" fill="#7AC4FF"/>
<path d="M65.0356 69.7017V75.177C65.0356 75.3786 65.0357 75.5466 65.0692 75.7481C65.1027 76.1512 65.2033 76.5879 65.3374 76.991C65.5385 77.6628 65.9072 78.3682 66.343 79.0065C66.5106 79.2416 66.6782 79.4431 66.8794 79.6783C67.7174 80.6524 68.8236 81.5594 70.2315 82.3656C77.1035 86.3294 88.1993 86.3294 95.0378 82.3656C96.4122 81.5594 97.5184 80.6524 98.3564 79.6783C98.9934 78.9057 99.4627 78.1331 99.7644 77.2933C99.9655 76.7222 100.1 76.1176 100.133 75.5465V69.7017H65.0356Z" fill="#E8A200"/>
<path d="M100.066 69.5C100.033 69.0969 99.932 68.6602 99.7979 68.2571C99.5968 67.5853 99.228 66.8799 98.7922 66.2416C98.6246 66.0065 98.457 65.805 98.2559 65.5698C97.4178 64.5957 83.9755 54.1152 82.7352 54.5183C78.2433 55.9291 67.6504 64.5957 66.8123 65.5698C66.1754 66.3424 65.7061 67.115 65.4044 67.9548C65.2033 68.5258 65.0692 69.1305 65.0356 69.7015C65.0356 69.8359 65.0356 69.9367 65.0356 70.071C65.0356 70.2726 65.0357 70.4405 65.0692 70.6421C65.1027 71.0452 65.2033 71.4819 65.3374 71.885C65.5385 72.5568 65.9072 73.2622 66.343 73.9004C66.5106 74.1356 66.6782 74.3371 66.8794 74.5723C67.7174 75.5464 68.8236 76.4534 70.2315 77.2596C77.1035 81.2233 88.1993 81.2233 95.0378 77.2596C96.4122 76.4534 97.5184 75.5464 98.3564 74.5723C98.9934 73.7997 99.4627 73.0271 99.7644 72.1873C99.9655 71.6162 100.1 71.0116 100.133 70.4405C100.133 70.3062 100.133 70.2054 100.133 70.071C100.1 69.8695 100.066 69.7015 100.066 69.5Z" fill="#F9BF30"/>
<path d="M66.8123 65.57C66.1754 66.3426 65.7061 67.1152 65.4044 67.9549C65.2033 68.526 65.0692 69.1306 65.0356 69.7017C65.0356 69.8361 65.0356 69.9368 65.0356 70.0712C65.0356 70.2727 65.0357 70.4407 65.0692 70.6422C65.1027 71.0453 65.2033 71.482 65.3374 71.8851C65.5385 72.557 65.9072 73.2624 66.343 73.9006C66.5106 74.1357 66.6782 74.3373 66.8794 74.5724C66.9799 74.6732 68.4214 76.252 70.6003 77.4613L82.7688 54.4849C78.6456 55.3918 67.6168 64.5958 66.8123 65.57Z" fill="#FDD762"/>
<path d="M98.3229 74.5723C98.9598 73.7997 99.4291 73.0271 99.7308 72.1873C99.9319 71.6163 100.066 71.0116 100.1 70.4406C100.1 70.3062 100.1 70.2054 100.1 70.0711C100.1 69.8695 100.1 69.7016 100.066 69.5C100.033 69.0969 99.9319 68.6602 99.7979 68.2571C99.5967 67.5853 99.228 66.8799 98.7922 66.2417C98.6246 66.0065 98.457 65.805 98.2559 65.5698C97.4178 64.5957 85.2493 54.8206 82.7352 54.5183H82.7017L98.1218 74.7738C98.1888 74.7067 98.2559 74.6395 98.3229 74.5723Z" fill="#E8A200"/>
<path d="M70.1983 77.2597C77.0703 81.2234 88.166 81.2234 95.0045 77.2597C96.2783 76.5206 97.3175 75.6809 98.122 74.7739C98.122 74.7739 85.5513 62.6138 82.9366 54.5855C82.5679 53.4434 68.958 76.5542 70.1983 77.2597Z" fill="#F9BF30"/>
</svg>
